# xmcd CD database file generated by Grip 3.2.0
# 
# Track frame offsets:
#       150
#       30070
#       58192
#       78577
#       94537
#       116937
#       137310
#       173087
# 
# Disc length: 2570 seconds
# 
# Revision: 6
# Processed by: cddbd v1.5.2PL0 Copyright (c) Steve Scherf et al.
# Submitted via: Grip 3.2.0
# 
DISCID=5a0a0808
DTITLE=John Handy, Lee Ritenour  - Where Go the Boats
DYEAR=1978
DGENRE=Jazz
TTITLE0=Right There, Right There
TTITLE1=Moogie Woogie
TTITLE2=Where Go the Boats
TTITLE3=Go For Yourself
TTITLE4=The Hissing of Summer
TTITLE5=She Just Won't Boogie with Me
TTITLE6=Erica
TTITLE7=Salud to Sonny
EXTD=
EXTT0=
EXTT1=
EXTT2=
EXTT3=
EXTT4=
EXTT5=
EXTT6=
EXTT7=
PLAYORDER=
